<?xml version="1.0" standalone="no"?>
<!DOCTYPE svg PUBLIC "-//W3C//DTD SVG 20010904//EN"
 "http://www.w3.org/TR/2001/REC-SVG-20010904/DTD/svg10.dtd">
<svg version="1.0" xmlns="http://www.w3.org/2000/svg"
 width="1280.000000pt" height="696.000000pt" viewBox="0 0 1280.000000 696.000000"
 preserveAspectRatio="xMidYMid meet">
<g transform="translate(0.000000,696.000000) scale(0.100000,-0.100000)"
fill="#000000" stroke="none">
<path d="M99 6844 c-34 -36 -34 -102 0 -138 19 -20 34 -26 67 -26 66 0 74 6
74 56 0 44 0 44 -35 44 -19 0 -35 -4 -35 -10 0 -5 9 -10 20 -10 16 0 20 -7 20
-30 0 -28 -2 -30 -39 -30 -30 0 -44 6 -55 22 -21 29 -20 77 0 107 15 21 22 23
73 18 50 -5 54 -4 37 9 -33 24 -99 18 -127 -12z"/>
<path d="M1183 6863 c-21 -8 -15 -26 7 -20 19 5 20 0 20 -69 0 -67 -2 -74 -20
-74 -11 0 -20 -4 -20 -10 0 -5 25 -10 55 -10 30 0 55 5 55 10 0 6 -9 10 -20
10 -18 0 -20 7 -20 85 0 82 -1 85 -22 84 -13 0 -29 -3 -35 -6z"/>
<path d="M1817 6863 c-16 -15 -5 -21 28 -16 33 5 65 -8 65 -27 0 -5 -22 -35
-50 -68 -27 -33 -50 -63 -50 -66 0 -3 27 -6 60 -6 33 0 60 4 60 10 0 6 -18 10
-41 10 l-41 0 41 46 c65 74 52 124 -32 124 -18 0 -37 -3 -40 -7z"/>
<path d="M2480 6857 c0 -9 11 -12 33 -9 44 5 71 -23 42 -44 -10 -8 -28 -14
-39 -14 -27 0 -8 -17 24 -22 20 -2 25 -9 25 -33 0 -29 -1 -30 -48 -30 -31 0
-47 -4 -47 -12 0 -9 17 -13 50 -13 42 0 52 4 67 26 16 25 16 28 1 55 -10 16
-13 31 -7 34 13 9 11 49 -3 63 -17 17 -98 16 -98 -1z"/>
<path d="M3160 6805 c-23 -35 -39 -69 -35 -75 3 -5 24 -10 46 -10 32 0 39 -3
39 -20 0 -11 7 -20 15 -20 8 0 15 9 15 19 0 11 6 22 13 25 10 5 10 7 0 12 -9
4 -13 28 -13 70 0 56 -2 64 -19 64 -12 0 -34 -23 -61 -65z m46 -51 c-5 -13
-56 -21 -56 -8 0 3 12 26 28 52 l27 47 3 -39 c2 -21 1 -44 -2 -52z"/>
<path d="M3800 6826 c0 -44 0 -45 36 -48 76 -6 72 -73 -5 -73 -26 0 -41 -5
-41 -12 0 -19 85 -17 104 3 20 19 21 77 3 93 -8 6 -28 14 -45 17 -22 5 -32 12
-32 25 0 15 8 19 40 19 22 0 40 5 40 10 0 6 -22 10 -50 10 l-50 0 0 -44z"/>
<path d="M4466 6851 c-9 -10 -19 -35 -23 -54 -11 -70 16 -117 67 -117 38 0 60
24 60 65 0 45 -38 74 -75 57 -28 -13 -32 -4 -15 29 8 13 21 19 45 19 19 0 35
5 35 10 0 18 -76 11 -94 -9z m68 -77 c19 -18 20 -28 6 -55 -19 -34 -70 -18
-70 22 0 18 25 49 40 49 5 0 16 -7 24 -16z"/>
<path d="M5100 6860 c0 -5 21 -10 46 -10 53 0 52 6 11 -102 -20 -51 -23 -68
-13 -68 8 0 19 12 24 28 6 15 22 57 36 95 l26 67 -65 0 c-37 0 -65 -4 -65 -10z"/>
<path d="M5776 6854 c-21 -20 -20 -38 1 -59 16 -16 16 -18 0 -27 -20 -10 -23
-58 -5 -76 7 -7 31 -12 55 -12 32 0 45 5 53 19 14 28 13 47 -7 66 -10 10 -12
19 -6 23 18 13 21 40 7 61 -18 26 -75 29 -98 5z m79 -34 c0 -20 -6 -26 -28
-28 -18 -2 -29 2 -33 12 -11 28 4 48 33 44 22 -2 28 -8 28 -28z m-7 -59 c8 -4
12 -19 10 -32 -4 -32 -52 -39 -67 -10 -18 33 24 64 57 42z"/>
<path d="M6427 6852 c-23 -25 -21 -68 3 -92 22 -22 42 -25 70 -10 16 9 19 8
13 -7 -11 -33 -25 -43 -59 -43 -19 0 -34 -4 -34 -10 0 -5 18 -10 39 -10 31 0
44 6 60 26 26 33 28 109 5 142 -19 28 -74 30 -97 4z m78 -41 c0 -41 -25 -62
-49 -42 -16 14 -22 62 -9 75 4 4 19 6 33 4 21 -3 25 -8 25 -37z"/>
<path d="M7013 6863 c-20 -7 -15 -25 5 -21 22 4 22 5 22 -77 0 -58 -2 -65 -20
-65 -11 0 -20 -4 -20 -10 0 -5 25 -10 55 -10 30 0 55 5 55 10 0 6 -9 10 -20
10 -18 0 -20 7 -20 85 0 82 -1 85 -22 84 -13 0 -29 -3 -35 -6z"/>
<path d="M7174 6849 c-13 -14 -18 -36 -18 -74 0 -62 22 -95 64 -95 42 0 63 31
63 95 0 39 -5 61 -18 75 -23 26 -67 26 -91 -1z m76 -18 c5 -11 10 -36 10 -56
0 -46 -15 -75 -40 -75 -25 0 -40 29 -40 75 0 46 15 75 40 75 11 0 24 -9 30
-19z"/>
<path d="M7673 6863 c-21 -8 -15 -26 7 -20 19 5 20 0 20 -69 0 -67 -2 -74 -20
-74 -11 0 -20 -4 -20 -10 0 -5 25 -10 55 -10 30 0 55 5 55 10 0 6 -9 10 -20
10 -18 0 -20 7 -20 85 0 82 -1 85 -22 84 -13 0 -29 -3 -35 -6z"/>
<path d="M7833 6863 c-23 -9 -13 -25 12 -21 25 5 25 5 25 -68 0 -67 -2 -74
-20 -74 -11 0 -20 -4 -20 -10 0 -5 25 -10 55 -10 30 0 55 5 55 10 0 6 -9 10
-20 10 -18 0 -20 7 -20 85 l0 85 -27 -1 c-16 0 -34 -3 -40 -6z"/>
<path d="M8323 6863 c-22 -8 -14 -24 10 -21 21 3 22 -1 25 -69 3 -72 3 -73
-23 -73 -14 0 -25 -4 -25 -10 0 -5 25 -10 55 -10 30 0 55 5 55 10 0 6 -9 10
-20 10 -18 0 -20 7 -20 85 0 82 -1 85 -22 84 -13 0 -29 -3 -35 -6z"/>
<path d="M8477 6863 c-15 -14 -5 -20 36 -19 62 1 63 -28 3 -92 -25 -27 -46
-54 -46 -61 0 -7 22 -11 60 -11 33 0 60 4 60 10 0 6 -21 10 -46 10 l-47 0 47
50 c50 53 56 78 28 103 -18 17 -82 23 -95 10z"/>
<path d="M8983 6863 c-22 -8 -14 -24 10 -21 21 3 22 -1 25 -69 3 -72 3 -73
-23 -73 -14 0 -25 -4 -25 -10 0 -5 25 -10 55 -10 30 0 55 5 55 10 0 6 -9 10
-20 10 -18 0 -20 7 -20 85 0 82 -1 85 -22 84 -13 0 -29 -3 -35 -6z"/>
<path d="M9135 6861 c-3 -6 14 -11 37 -13 36 -2 44 -7 46 -26 3 -18 -2 -23
-27 -28 -38 -8 -40 -22 -5 -26 68 -8 50 -73 -18 -66 -26 2 -38 0 -38 -9 0 -16
73 -18 101 -3 23 13 26 62 4 80 -13 11 -13 14 0 27 34 33 4 73 -55 73 -21 0
-41 -4 -45 -9z"/>
<path d="M9643 6863 c-22 -8 -14 -24 10 -21 21 3 22 0 22 -67 0 -65 -2 -70
-22 -73 -45 -7 -22 -22 32 -22 30 0 55 5 55 10 0 6 -9 10 -20 10 -18 0 -20 7
-20 85 0 82 -1 85 -22 84 -13 0 -29 -3 -35 -6z"/>
<path d="M9820 6811 c-53 -79 -52 -91 5 -91 38 0 45 -3 45 -20 0 -11 5 -20 10
-20 6 0 10 9 10 20 0 11 7 20 15 20 8 0 15 4 15 9 0 5 -7 11 -15 15 -11 4 -15
21 -15 66 0 79 -16 79 -70 1z m46 -57 c-6 -16 -56 -19 -56 -4 0 6 12 29 28 53
l27 42 3 -39 c2 -21 1 -44 -2 -52z"/>
<path d="M10293 6863 c-22 -8 -14 -23 12 -23 24 0 25 -2 25 -70 0 -63 -2 -70
-20 -70 -11 0 -20 -4 -20 -10 0 -5 25 -10 55 -10 30 0 55 5 55 10 0 6 -11 10
-25 10 -25 0 -25 1 -25 85 0 82 -1 85 -22 84 -13 0 -29 -3 -35 -6z"/>
<path d="M10450 6825 c0 -44 0 -45 34 -45 45 0 63 -22 47 -56 -10 -23 -16 -26
-51 -22 -28 2 -40 0 -40 -9 0 -19 85 -17 104 3 20 20 21 78 1 94 -9 7 -29 13
-45 14 -24 1 -30 5 -30 24 0 19 5 22 40 22 22 0 40 5 40 10 0 6 -22 10 -50 10
l-50 0 0 -45z"/>
<path d="M10953 6863 c-22 -8 -14 -23 12 -23 24 0 25 -2 25 -70 0 -68 -1 -70
-25 -70 -14 0 -25 -4 -25 -10 0 -6 27 -10 61 -10 37 0 58 4 54 10 -3 6 -15 10
-26 10 -17 0 -19 8 -19 85 0 82 -1 85 -22 84 -13 0 -29 -3 -35 -6z"/>
<path d="M11121 6844 c-26 -33 -28 -109 -5 -142 12 -18 24 -22 52 -20 68 6 85
92 23 118 -22 9 -35 9 -50 1 -18 -10 -20 -9 -14 6 12 33 25 43 60 43 20 0 32
4 28 10 -3 6 -21 10 -40 10 -24 0 -39 -7 -54 -26z m77 -107 c-3 -28 -7 -32
-33 -32 -26 0 -30 4 -33 30 -5 37 21 59 50 44 14 -8 18 -19 16 -42z"/>
<path d="M11613 6863 c-22 -8 -14 -24 10 -21 21 3 22 -1 25 -69 3 -72 3 -73
-23 -73 -14 0 -25 -4 -25 -10 0 -5 25 -10 55 -10 30 0 55 5 55 10 0 6 -9 10
-20 10 -18 0 -20 7 -20 85 0 82 -1 85 -22 84 -13 0 -29 -3 -35 -6z"/>
<path d="M11760 6860 c0 -5 20 -10 45 -10 25 0 45 -1 45 -3 0 -2 -11 -30 -24
-63 -36 -90 -39 -104 -24 -104 11 0 78 158 78 183 0 4 -27 7 -60 7 -33 0 -60
-4 -60 -10z"/>
<path d="M12273 6863 c-22 -8 -14 -24 10 -21 21 3 22 0 22 -67 0 -65 -2 -70
-22 -73 -45 -7 -22 -22 32 -22 30 0 55 5 55 10 0 6 -9 10 -20 10 -18 0 -20 7
-20 85 0 82 -1 85 -22 84 -13 0 -29 -3 -35 -6z"/>
<path d="M12432 6858 c-7 -7 -12 -21 -12 -33 0 -12 5 -26 12 -33 9 -9 9 -15 0
-24 -7 -7 -12 -24 -12 -38 0 -36 17 -50 62 -50 29 0 41 6 54 25 15 23 15 27
-1 51 -12 19 -14 29 -6 37 15 15 14 50 -1 65 -7 7 -28 12 -48 12 -20 0 -41 -5
-48 -12z m82 -24 c8 -21 -11 -44 -36 -44 -21 0 -33 22 -24 45 7 20 52 19 60
-1z m-4 -79 c22 -26 8 -50 -30 -50 -25 0 -36 5 -38 18 -5 23 15 47 38 47 10 0
23 -7 30 -15z"/>
<path d="M290 6748 c0 -39 4 -68 10 -68 6 0 10 22 10 48 0 51 12 72 42 72 10
0 18 4 18 9 0 6 -18 9 -40 8 l-40 -1 0 -68z"/>
<path d="M396 6798 c-36 -51 -8 -118 48 -118 40 0 66 26 66 66 0 45 -25 74
-65 74 -24 0 -39 -7 -49 -22z m85 -25 c14 -38 -3 -73 -36 -73 -32 0 -49 38
-35 75 14 36 57 35 71 -2z"/>
<path d="M550 6761 c0 -70 10 -81 73 -79 l47 1 0 68 c0 54 -3 69 -15 69 -10 0
-15 -15 -17 -57 -3 -57 -3 -58 -33 -58 -30 0 -30 1 -33 58 -4 75 -22 74 -22
-2z"/>
<path d="M720 6718 c0 -59 4 -98 10 -98 6 0 10 15 10 33 0 32 1 33 37 29 44
-6 63 15 63 68 0 49 -24 70 -78 67 l-42 -1 0 -98z m88 70 c7 -7 12 -24 12 -38
0 -14 -5 -31 -12 -38 -17 -17 -55 -15 -62 4 -16 42 1 84 34 84 9 0 21 -5 28
-12z"/>
<path d="M1070 6775 c0 -11 -18 -15 -82 -18 l-83 -3 83 -2 c65 -2 82 -5 82
-17 0 -19 10 -19 39 1 l24 17 -24 18 c-29 23 -39 24 -39 4z"/>
<path d="M302 6483 c-2 -66 -5 -83 -17 -83 -20 0 -19 -10 4 -39 l18 -24 17 24
c20 29 20 39 1 39 -11 0 -15 18 -18 83 l-3 82 -2 -82z"/>
<path d="M420 6445 c0 -57 4 -95 10 -95 6 0 10 16 10 35 0 32 3 35 28 35 41 0
72 26 72 60 0 37 -32 60 -82 60 l-38 0 0 -95z m78 63 c18 -18 14 -46 -9 -58
-32 -17 -49 -5 -49 35 0 30 3 35 23 35 13 0 28 -5 35 -12z"/>
<path d="M840 6525 c0 -8 5 -15 10 -15 6 0 10 7 10 15 0 8 -4 15 -10 15 -5 0
-10 -7 -10 -15z"/>
<path d="M1160 6503 c0 -29 -3 -34 -12 -25 -19 19 -55 14 -72 -10 -36 -52 -2
-139 47 -123 12 4 32 6 45 6 21 -1 22 2 22 94 0 78 -3 95 -15 95 -11 0 -15
-11 -15 -37z m-11 -47 c17 -20 10 -77 -11 -90 -21 -13 -58 17 -58 46 0 49 43
76 69 44z"/>
<path d="M580 6470 c-27 -27 -26 -81 0 -105 24 -22 84 -25 103 -6 10 11 5 12
-25 7 -31 -6 -41 -3 -60 16 l-23 23 58 3 c52 3 57 5 57 26 0 51 -72 74 -110
36z m80 -15 c18 -22 9 -27 -41 -23 -41 3 -42 4 -25 21 22 21 49 22 66 2z"/>
<path d="M730 6420 c0 -40 4 -70 10 -70 6 0 10 18 10 41 0 50 15 79 40 79 11
0 20 5 20 10 0 14 -33 13 -48 -2 -9 -9 -12 -9 -12 0 0 7 -4 12 -10 12 -6 0
-10 -30 -10 -70z"/>
<path d="M840 6420 c0 -40 4 -70 10 -70 6 0 10 30 10 70 0 40 -4 70 -10 70 -6
0 -10 -30 -10 -70z"/>
<path d="M920 6470 c-23 -23 -27 -77 -7 -103 6 -9 24 -19 39 -22 21 -5 33 -1
52 19 47 46 22 126 -39 126 -14 0 -34 -9 -45 -20z m68 -12 c17 -17 15 -73 -3
-88 -20 -16 -43 -6 -57 25 -22 49 25 98 60 63z"/>
<path d="M937 6253 c-4 -3 -7 -141 -7 -305 l0 -298 305 0 305 0 0 305 0 305
-298 0 c-164 0 -302 -3 -305 -7z"/>
<path d="M12110 5955 l0 -305 300 0 300 0 0 305 0 305 -300 0 -300 0 0 -305z"/>
<path d="M548 6053 c-24 -6 -23 -23 2 -23 18 0 20 -7 20 -70 0 -63 -2 -70 -20
-70 -11 0 -20 -4 -20 -10 0 -5 25 -10 55 -10 30 0 55 5 55 10 0 6 -9 10 -20
10 -18 0 -20 7 -20 85 0 90 -1 92 -52 78z"/>
<path d="M932 5298 l3 -303 303 -3 302 -2 0 305 0 305 -305 0 -305 0 2 -302z"/>
<path d="M1590 5295 l0 -305 305 0 305 0 0 305 0 305 -305 0 -305 0 0 -305z"/>
<path d="M8820 5295 l0 -305 305 0 305 0 0 305 0 305 -305 0 -305 0 0 -305z"/>
<path d="M9480 5295 l0 -305 303 2 302 3 3 303 2 302 -305 0 -305 0 0 -305z"/>
<path d="M10135 5587 c-3 -7 -4 -143 -3 -302 l3 -290 303 -3 302 -2 0 305 0
305 -300 0 c-233 0 -302 -3 -305 -13z"/>
<path d="M10790 5295 l0 -305 305 0 305 0 0 305 0 305 -305 0 -305 0 0 -305z"/>
<path d="M11450 5295 l0 -305 305 0 305 0 0 305 0 305 -305 0 -305 0 0 -305z"/>
<path d="M12110 5295 l0 -305 300 0 300 0 0 305 0 305 -300 0 -300 0 0 -305z"/>
<path d="M527 5393 c-15 -14 -5 -20 36 -19 38 1 42 -2 45 -24 2 -19 -9 -36
-43 -70 -61 -60 -59 -70 15 -70 33 0 60 4 60 10 0 6 -18 10 -40 10 -22 0 -40
3 -40 6 0 4 18 26 40 50 44 48 49 72 22 97 -18 17 -82 23 -95 10z"/>
<path d="M930 4640 l0 -300 305 0 305 0 0 300 0 300 -305 0 -305 0 0 -300z"/>
<path d="M1590 4640 l0 -300 305 0 305 0 0 300 0 300 -305 0 -305 0 0 -300z"/>
<path d="M8820 4640 l0 -300 305 0 305 0 0 300 0 300 -305 0 -305 0 0 -300z"/>
<path d="M9480 4640 l0 -300 305 0 305 0 0 300 0 300 -305 0 -305 0 0 -300z"/>
<path d="M10130 4640 l0 -300 305 0 305 0 0 300 0 300 -305 0 -305 0 0 -300z"/>
<path d="M10790 4640 l0 -300 305 0 305 0 0 300 0 300 -305 0 -305 0 0 -300z"/>
<path d="M11450 4640 l0 -300 305 0 305 0 0 300 0 300 -305 0 -305 0 0 -300z"/>
<path d="M12110 4640 l0 -300 300 0 300 0 0 300 0 300 -300 0 -300 0 0 -300z"/>
<path d="M525 4740 c-7 -11 -6 -11 45 -13 30 -2 35 -5 35 -27 0 -20 -6 -26
-27 -28 -34 -4 -37 -22 -4 -22 31 0 50 -23 41 -50 -6 -19 -13 -21 -51 -18 -51
4 -62 -16 -14 -26 65 -13 113 35 83 83 -11 17 -12 26 -4 34 18 18 13 55 -8 67
-25 13 -88 13 -96 0z"/>
<path d="M937 4283 c-4 -3 -7 -141 -7 -305 l0 -298 305 0 305 0 0 305 0 305
-298 0 c-164 0 -302 -3 -305 -7z"/>
<path d="M1590 3985 l0 -305 305 0 305 0 0 305 0 305 -305 0 -305 0 0 -305z"/>
<path d="M2250 3985 l0 -305 305 0 305 0 -2 303 -3 302 -302 3 -303 2 0 -305z"/>
<path d="M2910 4285 c0 -3 0 -139 0 -302 l-1 -298 301 -3 300 -2 0 305 0 305
-300 0 c-165 0 -300 -2 -300 -5z"/>
<path d="M3567 4283 c-4 -3 -7 -141 -7 -305 l0 -298 305 0 305 0 0 305 0 305
-298 0 c-164 0 -302 -3 -305 -7z"/>
<path d="M4220 3985 l0 -305 305 0 305 0 -2 303 -3 302 -302 3 -303 2 0 -305z"/>
<path d="M4880 3985 l0 -305 300 0 300 0 0 305 0 305 -300 0 -300 0 0 -305z"/>
<path d="M5537 4283 c-4 -3 -7 -141 -7 -305 l0 -298 305 0 305 0 0 305 0 305
-298 0 c-164 0 -302 -3 -305 -7z"/>
<path d="M6190 3985 l0 -305 305 0 305 0 0 305 0 305 -305 0 -305 0 0 -305z"/>
<path d="M6850 3985 l0 -305 305 0 305 0 -2 303 -3 302 -302 3 -303 2 0 -305z"/>
<path d="M7510 3985 l0 -305 300 0 300 0 0 305 0 305 -300 0 -300 0 0 -305z"/>
<path d="M8167 4283 c-4 -3 -7 -141 -7 -305 l0 -298 305 0 305 0 0 305 0 305
-298 0 c-164 0 -302 -3 -305 -7z"/>
<path d="M8820 3985 l0 -305 305 0 305 0 0 305 0 305 -305 0 -305 0 0 -305z"/>
<path d="M9480 3985 l0 -305 305 0 305 0 -2 303 -3 302 -302 3 -303 2 0 -305z"/>
<path d="M10135 4277 c-3 -7 -4 -143 -3 -302 l3 -290 303 -3 302 -2 0 305 0
305 -300 0 c-233 0 -302 -3 -305 -13z"/>
<path d="M10790 3985 l0 -305 305 0 305 0 0 305 0 305 -305 0 -305 0 0 -305z"/>
<path d="M11450 3985 l0 -305 305 0 305 0 -2 303 -3 302 -302 3 -303 2 0 -305z"/>
<path d="M12110 3985 l0 -305 300 0 300 0 0 305 0 305 -300 0 -300 0 0 -305z"/>
<path d="M551 4027 c-22 -35 -41 -69 -41 -75 0 -8 17 -12 45 -12 38 0 45 -3
45 -20 0 -11 5 -20 10 -20 6 0 10 9 10 20 0 11 7 20 15 20 8 0 15 4 15 9 0 5
-7 11 -15 15 -11 4 -15 21 -15 66 0 79 -16 78 -69 -3z m45 -53 c-5 -14 -56
-20 -56 -7 0 3 12 27 28 52 l27 46 3 -39 c2 -21 1 -44 -2 -52z"/>
<path d="M932 3328 l3 -303 303 -3 302 -2 0 305 0 305 -305 0 -305 0 2 -302z"/>
<path d="M1590 3325 l0 -305 305 0 305 0 0 305 0 305 -305 0 -305 0 0 -305z"/>
<path d="M2250 3325 l0 -305 303 2 302 3 3 303 2 302 -305 0 -305 0 0 -305z"/>
<path d="M2910 3625 c0 -3 0 -139 0 -302 l-1 -298 301 -3 300 -2 0 305 0 305
-300 0 c-165 0 -300 -2 -300 -5z"/>
<path d="M3560 3325 l0 -305 305 0 305 0 0 305 0 305 -305 0 -305 0 0 -305z"/>
<path d="M4220 3325 l0 -305 305 0 305 0 0 305 0 305 -305 0 -305 0 0 -305z"/>
<path d="M4880 3325 l0 -305 300 0 300 0 0 305 0 305 -300 0 -300 0 0 -305z"/>
<path d="M5532 3328 l3 -303 303 -3 302 -2 0 305 0 305 -305 0 -305 0 2 -302z"/>
<path d="M6190 3325 l0 -305 305 0 305 0 0 305 0 305 -305 0 -305 0 0 -305z"/>
<path d="M6850 3325 l0 -305 303 2 302 3 3 303 2 302 -305 0 -305 0 0 -305z"/>
<path d="M7510 3325 l0 -305 300 0 300 0 0 305 0 305 -300 0 -300 0 0 -305z"/>
<path d="M8162 3328 l3 -303 303 -3 302 -2 0 305 0 305 -305 0 -305 0 2 -302z"/>
<path d="M8820 3325 l0 -305 305 0 305 0 0 305 0 305 -305 0 -305 0 0 -305z"/>
<path d="M9480 3325 l0 -305 303 2 302 3 3 303 2 302 -305 0 -305 0 0 -305z"/>
<path d="M10132 3328 l3 -303 303 -3 302 -2 0 305 0 305 -305 0 -305 0 2 -302z"/>
<path d="M10790 3325 l0 -305 305 0 305 0 0 305 0 305 -305 0 -305 0 0 -305z"/>
<path d="M11450 3325 l0 -305 305 0 305 0 0 305 0 305 -305 0 -305 0 0 -305z"/>
<path d="M12110 3325 l0 -305 300 0 300 0 0 305 0 305 -300 0 -300 0 0 -305z"/>
<path d="M530 3385 c0 -42 2 -45 23 -40 15 4 32 -1 47 -13 22 -18 23 -22 12
-47 -11 -24 -17 -27 -52 -23 -28 2 -40 0 -40 -9 0 -21 84 -17 103 5 39 43 8
112 -50 112 -16 0 -23 6 -23 20 0 17 7 20 40 20 22 0 40 5 40 10 0 6 -22 10
-50 10 l-50 0 0 -45z"/>
<path d="M930 2670 l0 -300 305 0 305 0 0 300 0 300 -305 0 -305 0 0 -300z"/>
<path d="M1590 2670 l0 -300 305 0 305 0 0 300 0 300 -305 0 -305 0 0 -300z"/>
<path d="M2260 2670 l0 -300 293 2 292 3 0 295 0 295 -292 3 -293 2 0 -300z"/>
<path d="M2905 2670 l0 -300 303 0 302 0 0 300 0 300 -302 0 -303 0 0 -300z"/>
<path d="M3560 2670 l0 -300 305 0 305 0 0 300 0 300 -305 0 -305 0 0 -300z"/>
<path d="M4220 2670 l0 -300 305 0 305 0 0 300 0 300 -305 0 -305 0 0 -300z"/>
<path d="M4880 2670 l0 -300 300 0 300 0 0 300 0 300 -300 0 -300 0 0 -300z"/>
<path d="M5530 2670 l0 -300 305 0 305 0 0 300 0 300 -305 0 -305 0 0 -300z"/>
<path d="M6190 2670 l0 -300 305 0 305 0 0 300 0 300 -305 0 -305 0 0 -300z"/>
<path d="M6850 2670 l0 -300 305 0 305 0 0 300 0 300 -305 0 -305 0 0 -300z"/>
<path d="M7510 2670 l0 -300 300 0 300 0 0 300 0 300 -300 0 -300 0 0 -300z"/>
<path d="M8160 2670 l0 -300 305 0 305 0 0 300 0 300 -305 0 -305 0 0 -300z"/>
<path d="M8820 2670 l0 -300 305 0 305 0 0 300 0 300 -305 0 -305 0 0 -300z"/>
<path d="M9480 2670 l0 -300 305 0 305 0 0 300 0 300 -305 0 -305 0 0 -300z"/>
<path d="M10130 2670 l0 -300 305 0 305 0 0 300 0 300 -305 0 -305 0 0 -300z"/>
<path d="M10790 2670 l0 -300 305 0 305 0 0 300 0 300 -305 0 -305 0 0 -300z"/>
<path d="M11450 2670 l0 -300 305 0 305 0 0 300 0 300 -305 0 -305 0 0 -300z"/>
<path d="M12110 2670 l0 -300 300 0 300 0 0 300 0 300 -300 0 -300 0 0 -300z"/>
<path d="M564 2768 c-53 -25 -60 -147 -10 -180 23 -16 65 -8 80 14 35 50 1
115 -55 104 -20 -4 -29 -1 -29 7 0 22 23 37 57 37 38 0 44 15 11 24 -28 7 -28
7 -54 -6z m44 -90 c18 -18 15 -68 -4 -75 -37 -14 -70 41 -44 73 15 17 32 18
48 2z"/>
<path d="M937 2313 c-4 -3 -7 -141 -7 -305 l0 -298 305 0 305 0 0 305 0 305
-298 0 c-164 0 -302 -3 -305 -7z"/>
<path d="M1590 2015 l0 -305 305 0 305 0 0 305 0 305 -305 0 -305 0 0 -305z"/>
<path d="M2910 2315 c0 -3 0 -139 0 -302 l-1 -298 301 -3 300 -2 0 305 0 305
-300 0 c-165 0 -300 -2 -300 -5z"/>
<path d="M3567 2313 c-4 -3 -7 -141 -7 -305 l0 -298 305 0 305 0 0 305 0 305
-298 0 c-164 0 -302 -3 -305 -7z"/>
<path d="M4220 2015 l0 -305 305 0 305 0 -2 303 -3 302 -302 3 -303 2 0 -305z"/>
<path d="M4880 2015 l0 -305 300 0 300 0 0 305 0 305 -300 0 -300 0 0 -305z"/>
<path d="M5537 2313 c-4 -3 -7 -141 -7 -305 l0 -298 305 0 305 0 0 305 0 305
-298 0 c-164 0 -302 -3 -305 -7z"/>
<path d="M6190 2015 l0 -305 305 0 305 0 0 305 0 305 -305 0 -305 0 0 -305z"/>
<path d="M6850 2015 l0 -305 305 0 305 0 -2 303 -3 302 -302 3 -303 2 0 -305z"/>
<path d="M7510 2015 l0 -305 300 0 300 0 0 305 0 305 -300 0 -300 0 0 -305z"/>
<path d="M8167 2313 c-4 -3 -7 -141 -7 -305 l0 -298 305 0 305 0 0 305 0 305
-298 0 c-164 0 -302 -3 -305 -7z"/>
<path d="M8820 2015 l0 -305 305 0 305 0 0 305 0 305 -305 0 -305 0 0 -305z"/>
<path d="M9480 2015 l0 -305 305 0 305 0 -2 303 -3 302 -302 3 -303 2 0 -305z"/>
<path d="M10135 2307 c-3 -7 -4 -143 -3 -302 l3 -290 303 -3 302 -2 0 305 0
305 -300 0 c-233 0 -302 -3 -305 -13z"/>
<path d="M10790 2015 l0 -305 305 0 305 0 0 305 0 305 -305 0 -305 0 0 -305z"/>
<path d="M11450 2015 l0 -305 305 0 305 0 -2 303 -3 302 -302 3 -303 2 0 -305z"/>
<path d="M12110 2015 l0 -305 300 0 300 0 0 305 0 305 -300 0 -300 0 0 -305z"/>
<path d="M2260 2015 l0 -295 295 0 295 0 0 295 0 295 -295 0 -295 0 0 -295z"/>
<path d="M520 2110 c0 -5 20 -10 45 -10 25 0 45 -2 45 -5 0 -2 -13 -38 -30
-80 -34 -87 -34 -85 -17 -85 10 0 77 158 77 183 0 4 -27 7 -60 7 -33 0 -60 -4
-60 -10z"/>
<path d="M2240 1050 l0 -300 305 0 305 0 0 300 0 300 -305 0 -305 0 0 -300z"/>
<path d="M2900 1050 l0 -300 305 0 305 0 0 300 0 300 -305 0 -305 0 0 -300z"/>
<path d="M3560 1050 l0 -300 300 0 300 0 0 300 0 300 -300 0 -300 0 0 -300z"/>
<path d="M4210 1050 l0 -300 305 0 305 0 0 300 0 300 -305 0 -305 0 0 -300z"/>
<path d="M4870 1050 l0 -300 305 0 305 0 0 300 0 300 -305 0 -305 0 0 -300z"/>
<path d="M5530 1050 l0 -300 305 0 305 0 0 300 0 300 -305 0 -305 0 0 -300z"/>
<path d="M6180 1050 l0 -300 305 0 305 0 0 300 0 300 -305 0 -305 0 0 -300z"/>
<path d="M6840 1050 l0 -300 305 0 305 0 0 300 0 300 -305 0 -305 0 0 -300z"/>
<path d="M7500 1050 l0 -300 305 0 305 0 0 300 0 300 -305 0 -305 0 0 -300z"/>
<path d="M8160 1050 l0 -300 300 0 300 0 0 300 0 300 -300 0 -300 0 0 -300z"/>
<path d="M8810 1050 l0 -300 305 0 305 0 0 300 0 300 -305 0 -305 0 0 -300z"/>
<path d="M9470 1050 l0 -300 305 0 305 0 0 300 0 300 -305 0 -305 0 0 -300z"/>
<path d="M10130 1050 l0 -300 305 0 305 0 0 300 0 300 -305 0 -305 0 0 -300z"/>
<path d="M10788 1050 l-3 -300 303 0 302 0 0 300 0 300 -300 0 -299 0 -3 -300z"/>
<path d="M11440 1050 l0 -300 305 0 305 0 0 300 0 300 -305 0 -305 0 0 -300z"/>
<path d="M430 1066 l0 -96 60 0 c33 0 60 4 60 10 0 6 -23 10 -51 10 l-50 0 2
82 c1 55 -2 83 -9 86 -9 3 -12 -24 -12 -92z"/>
<path d="M1000 1065 c0 -76 3 -95 14 -95 11 0 16 15 18 51 6 95 68 93 68 -2 0
-27 5 -49 10 -49 6 0 10 27 10 60 0 55 -2 61 -26 72 -20 9 -30 9 -45 0 -17
-11 -19 -9 -19 23 0 24 -5 35 -15 35 -12 0 -15 -17 -15 -95z"/>
<path d="M1500 1145 c0 -8 5 -15 10 -15 6 0 10 7 10 15 0 8 -4 15 -10 15 -5 0
-10 -7 -10 -15z"/>
<path d="M1660 1123 c0 -29 -3 -34 -12 -25 -33 33 -88 -7 -88 -63 0 -44 32
-80 63 -70 12 4 32 6 45 6 21 -1 22 2 22 94 0 78 -3 95 -15 95 -11 0 -15 -11
-15 -37z m-12 -45 c17 -17 15 -73 -3 -88 -20 -17 -54 -3 -61 26 -13 52 31 95
64 62z"/>
<path d="M900 1132 c0 -10 -5 -23 -12 -30 -9 -9 -9 -12 0 -12 8 0 12 -16 12
-44 0 -64 7 -76 44 -75 28 0 29 1 9 9 -41 17 -45 103 -5 108 30 5 28 22 -3 22
-18 0 -25 5 -25 20 0 11 -4 20 -10 20 -5 0 -10 -8 -10 -18z"/>
<path d="M593 1103 c-24 -9 -13 -18 24 -18 28 0 38 -5 41 -17 3 -14 -3 -18
-30 -18 -19 0 -39 -5 -46 -12 -15 -15 -15 -51 0 -66 14 -14 54 -16 62 -3 3 5
15 7 26 4 18 -5 20 0 20 46 0 72 -41 107 -97 84z m67 -81 c0 -23 -19 -42 -42
-42 -27 0 -35 30 -13 46 27 20 55 18 55 -4z"/>
<path d="M737 1103 c-4 -3 -7 -35 -7 -70 0 -49 3 -63 15 -63 11 0 15 12 15 49
0 54 17 77 50 66 17 -5 20 -15 20 -61 0 -36 4 -54 13 -54 15 0 11 108 -5 128
-13 15 -54 16 -63 2 -5 -8 -11 -8 -19 -1 -7 6 -16 8 -19 4z"/>
<path d="M1183 1103 c-25 -10 -12 -22 17 -17 31 7 65 -11 54 -27 -3 -5 -20 -9
-38 -9 -41 0 -60 -21 -52 -55 7 -28 44 -42 73 -27 10 5 24 7 31 5 21 -8 16
100 -6 120 -18 16 -54 21 -79 10z m77 -77 c0 -18 -27 -46 -44 -46 -8 0 -19 6
-25 14 -9 11 -8 18 4 30 20 20 65 21 65 2z"/>
<path d="M1330 1040 c0 -40 4 -70 10 -70 6 0 10 20 10 44 0 45 18 76 45 76 21
0 35 -33 35 -79 0 -23 5 -41 10 -41 6 0 10 24 10 54 0 75 -30 103 -81 76 -13
-7 -19 -7 -19 0 0 5 -4 10 -10 10 -6 0 -10 -30 -10 -70z"/>
<path d="M1500 1040 c0 -40 4 -70 10 -70 6 0 10 30 10 70 0 40 -4 70 -10 70
-6 0 -10 -30 -10 -70z"/>
<path d="M1753 1095 c-41 -29 -37 -101 8 -125 23 -13 89 -5 89 10 0 5 -13 7
-29 4 -33 -7 -71 10 -71 31 0 11 13 15 55 15 62 0 68 10 34 54 -23 29 -54 33
-86 11z m65 -17 c21 -21 13 -28 -28 -28 -22 0 -40 4 -40 8 0 14 23 32 40 32 9
0 21 -5 28 -12z"/>
<path d="M1896 1091 c-23 -25 -12 -46 36 -64 52 -21 46 -43 -11 -40 -49 2 -55
-14 -7 -22 47 -9 78 9 74 42 -2 20 -12 29 -38 38 -43 15 -46 39 -5 42 49 2 51
3 35 13 -24 16 -66 11 -84 -9z"/>
<path d="M2240 395 l0 -305 305 0 305 0 0 305 0 305 -305 0 -305 0 0 -305z"/>
<path d="M2900 395 l0 -305 305 0 305 0 -2 303 -3 302 -302 3 -303 2 0 -305z"/>
<path d="M3560 395 l0 -305 300 0 300 0 0 305 0 305 -300 0 -300 0 0 -305z"/>
<path d="M4217 693 c-4 -3 -7 -141 -7 -305 l0 -298 305 0 305 0 0 305 0 305
-298 0 c-164 0 -302 -3 -305 -7z"/>
<path d="M4870 395 l0 -305 305 0 305 0 0 305 0 305 -305 0 -305 0 0 -305z"/>
<path d="M5530 395 l0 -305 305 0 305 0 -2 303 -3 302 -302 3 -303 2 0 -305z"/>
<path d="M6187 693 c-4 -3 -7 -141 -7 -305 l0 -298 305 0 305 0 0 305 0 305
-298 0 c-164 0 -302 -3 -305 -7z"/>
<path d="M6840 395 l0 -305 305 0 305 0 0 305 0 305 -305 0 -305 0 0 -305z"/>
<path d="M7500 395 l0 -305 305 0 305 0 -2 303 -3 302 -302 3 -303 2 0 -305z"/>
<path d="M8160 395 l0 -305 300 0 300 0 0 305 0 305 -300 0 -300 0 0 -305z"/>
<path d="M8817 693 c-4 -3 -7 -141 -7 -305 l0 -298 305 0 305 0 0 305 0 305
-298 0 c-164 0 -302 -3 -305 -7z"/>
<path d="M9470 395 l0 -305 305 0 305 0 0 305 0 305 -305 0 -305 0 0 -305z"/>
<path d="M10130 395 l0 -305 305 0 305 0 -2 303 -3 302 -302 3 -303 2 0 -305z"/>
<path d="M10789 696 c-2 -2 -3 -140 -1 -305 l3 -301 299 0 300 0 0 305 0 305
-298 0 c-164 0 -301 -2 -303 -4z"/>
<path d="M11447 693 c-4 -3 -7 -141 -7 -305 l0 -298 305 0 305 0 0 305 0 305
-298 0 c-164 0 -302 -3 -305 -7z"/>
<path d="M1260 525 c0 -8 5 -15 10 -15 6 0 10 7 10 15 0 8 -4 15 -10 15 -5 0
-10 -7 -10 -15z"/>
<path d="M1500 525 c0 -8 5 -15 10 -15 6 0 10 7 10 15 0 8 -4 15 -10 15 -5 0
-10 -7 -10 -15z"/>
<path d="M1660 506 c0 -34 -1 -35 -30 -29 -43 8 -70 -19 -70 -68 0 -52 20 -69
81 -67 l50 1 -3 95 c-2 65 -7 97 -15 100 -9 2 -13 -8 -13 -32z m-12 -58 c26
-26 11 -88 -22 -88 -41 0 -58 38 -36 81 12 21 40 25 58 7z"/>
<path d="M880 508 c-27 -65 -60 -152 -60 -160 0 -18 21 -7 32 17 9 21 18 25
54 25 36 0 43 -3 48 -25 4 -14 13 -25 21 -25 12 0 10 13 -11 68 -14 37 -30 79
-36 95 -12 33 -35 35 -48 5z m27 -96 c-16 -2 -31 -1 -33 1 -3 2 3 24 12 47
l17 43 16 -44 17 -44 -29 -3z"/>
<path d="M1160 501 c0 -11 -6 -22 -12 -24 -10 -4 -10 -7 -1 -14 6 -5 13 -33
15 -63 3 -54 4 -55 36 -58 36 -4 45 15 10 20 -20 3 -23 10 -26 51 -3 45 -2 47
22 47 15 0 26 5 26 10 0 6 -11 10 -25 10 -18 0 -25 5 -25 20 0 11 -4 20 -10
20 -5 0 -10 -9 -10 -19z"/>
<path d="M1020 460 c-24 -24 -26 -67 -4 -98 11 -16 25 -22 55 -22 50 0 51 18
2 22 -35 3 -38 6 -41 36 -4 42 12 62 49 62 16 0 29 5 29 10 0 19 -69 11 -90
-10z"/>
<path d="M1260 410 c0 -40 4 -70 10 -70 6 0 10 30 10 70 0 40 -4 70 -10 70 -6
0 -10 -30 -10 -70z"/>
<path d="M1330 410 c0 -40 4 -70 10 -70 6 0 10 18 10 41 0 49 15 79 38 79 30
0 42 -21 42 -72 0 -26 5 -48 10 -48 13 0 13 96 0 121 -12 22 -59 26 -78 7 -9
-9 -12 -9 -12 0 0 7 -4 12 -10 12 -6 0 -10 -30 -10 -70z"/>
<path d="M1500 410 c0 -40 4 -70 10 -70 6 0 10 30 10 70 0 40 -4 70 -10 70 -6
0 -10 -30 -10 -70z"/>
<path d="M1741 454 c-24 -30 -26 -46 -10 -77 17 -31 28 -37 77 -37 28 0 42 4
42 13 0 9 -11 12 -35 9 -34 -4 -65 10 -65 29 0 5 22 9 49 9 58 0 67 9 49 47
-10 22 -21 29 -49 31 -30 3 -41 -2 -58 -24z m87 -16 c3 -15 -4 -18 -37 -18
-43 0 -50 7 -29 28 18 18 62 11 66 -10z"/>
<path d="M1890 459 c-15 -27 8 -54 51 -63 44 -8 31 -30 -20 -34 -51 -4 -44
-22 8 -22 69 0 84 56 21 76 -19 6 -36 19 -38 28 -3 13 5 16 38 16 25 0 39 4
35 10 -3 6 -24 10 -45 10 -30 0 -42 -5 -50 -21z"/>
</g>
</svg>
