<?xml version="1.0" standalone="no"?>
<!DOCTYPE svg PUBLIC "-//W3C//DTD SVG 20010904//EN"
 "http://www.w3.org/TR/2001/REC-SVG-20010904/DTD/svg10.dtd">
<svg version="1.0" xmlns="http://www.w3.org/2000/svg"
 width="1280.000000pt" height="640.000000pt" viewBox="0 0 1280.000000 640.000000"
 preserveAspectRatio="xMidYMid meet">
<g transform="translate(0.000000,640.000000) scale(0.100000,-0.100000)"
fill="#000000" stroke="none">
<path d="M10865 5111 c-32 -6 -44 -36 -29 -69 4 -9 8 -24 9 -32 1 -8 8 -53 15
-98 12 -78 10 -192 -6 -337 l-6 -50 -66 0 c-53 0 -79 -6 -124 -28 -98 -48
-133 -126 -83 -185 23 -28 24 -32 8 -30 -40 3 -53 -3 -68 -32 -9 -17 -24 -30
-34 -30 -10 0 -22 -7 -25 -16 -3 -9 -6 -121 -6 -250 l0 -234 -4427 -2 c-4295
-3 -4429 -4 -4463 -22 -60 -31 -109 -86 -187 -211 -79 -124 -108 -163 -852
-1150 -245 -324 -460 -614 -478 -644 -39 -64 -50 -127 -33 -184 18 -61 99
-136 183 -170 153 -62 -274 -57 5662 -55 l5420 3 42 22 c61 33 103 81 183 209
39 62 103 155 143 206 40 51 318 418 617 816 l544 723 -11 66 c-38 221 -239
392 -460 393 l-53 0 -1 248 c-1 136 -1 268 1 295 l2 47 -411 0 -411 0 -2 348
-3 347 -40 0 -40 0 -5 -315 c-4 -249 -7 -310 -17 -290 -6 14 -76 175 -156 358
-80 183 -147 336 -150 338 -5 6 -77 -22 -77 -30 0 -3 70 -166 156 -363 86
-197 158 -363 161 -370 3 -7 -21 -1 -55 13 l-60 26 -16 82 c-11 57 -34 116
-76 202 -43 85 -69 154 -90 238 -17 65 -28 122 -25 126 3 5 1 11 -5 15 -6 4
-8 11 -4 16 3 5 3 23 -1 39 -7 32 -23 36 -90 21z"/>
</g>
</svg>
