<?xml version="1.0" standalone="no"?>
<!DOCTYPE svg PUBLIC "-//W3C//DTD SVG 20010904//EN"
 "http://www.w3.org/TR/2001/REC-SVG-20010904/DTD/svg10.dtd">
<svg version="1.0" xmlns="http://www.w3.org/2000/svg"
 width="535.000000pt" height="1280.000000pt" viewBox="0 0 535.000000 1280.000000"
 preserveAspectRatio="xMidYMid meet">
<g transform="translate(0.000000,1280.000000) scale(0.100000,-0.100000)"
fill="#000000" stroke="none">
<path d="M3019 12588 c-26 -51 -82 -140 -126 -199 -126 -167 -142 -226 -143
-496 l0 -152 -38 1 c-21 0 -52 -3 -69 -6 -36 -8 -30 -24 -78 191 -54 240 -87
297 -250 420 -55 42 -138 111 -185 153 -47 42 -91 80 -98 84 -11 7 -12 -28 -7
-195 3 -112 10 -235 16 -272 10 -73 50 -170 93 -227 45 -60 138 -150 204 -197
58 -42 74 -71 31 -58 -13 4 -19 2 -19 -9 0 -8 -14 -25 -31 -37 l-31 -22 7 24
c4 13 -20 -14 -53 -61 -33 -47 -69 -95 -80 -108 -26 -30 -65 -176 -58 -216 3
-17 8 -47 11 -66 5 -26 4 -31 -4 -20 -8 11 -11 4 -11 -32 0 -66 -19 -192 -35
-239 -8 -22 -10 -37 -6 -34 16 9 50 128 58 201 l7 69 8 -60 c11 -96 -8 -176
-60 -245 -14 -19 -18 -29 -9 -21 12 9 17 10 17 2 0 -7 5 -9 13 -5 6 4 1 -5
-12 -19 -15 -16 -19 -27 -12 -27 10 0 11 -4 3 -13 -15 -17 2 -42 22 -34 14 6
15 3 6 -13 -8 -14 -8 -20 0 -20 6 0 9 -4 6 -9 -3 -5 6 -21 19 -35 14 -15 25
-32 25 -39 0 -7 10 -1 21 13 l21 25 -6 -31 c-3 -18 -8 -44 -12 -59 -5 -21 -4
-27 7 -23 15 5 38 73 43 131 6 64 16 54 16 -17 0 -37 -7 -83 -15 -104 -15 -36
-15 -36 2 -19 13 13 19 37 21 97 2 44 1 88 -4 98 -4 9 -9 35 -10 57 -2 36 -1
37 8 15 26 -63 33 -186 15 -237 -20 -58 -3 -55 27 5 24 46 25 46 26 16 0 -16
-5 -35 -12 -42 -9 -9 -7 -12 10 -12 24 0 28 -10 11 -27 -21 -21 0 -34 27 -17
29 19 25 22 57 -42 14 -28 42 -72 62 -99 l37 -48 -42 -83 c-59 -117 -130 -168
-291 -210 l-65 -18 -89 40 c-87 38 -94 39 -200 39 -98 -1 -121 -4 -210 -34
-55 -18 -138 -51 -185 -71 -56 -26 -124 -46 -200 -60 -63 -12 -158 -30 -210
-40 -52 -11 -95 -18 -97 -17 -6 7 41 285 72 424 83 367 118 509 131 528 45 69
132 406 120 468 -9 50 -48 103 -155 212 -73 73 -100 95 -121 95 -15 0 -41 7
-59 16 -20 10 -43 14 -59 10 -15 -4 -49 -8 -77 -11 -119 -10 -169 -22 -183
-44 -8 -11 -22 -21 -32 -21 -25 0 -36 -18 -49 -78 -14 -66 -14 -106 0 -154 8
-30 15 -38 33 -38 14 0 27 9 34 23 10 22 11 22 11 -5 1 -16 10 -37 21 -48 11
-11 22 -31 26 -45 5 -21 12 -25 40 -25 19 0 34 4 34 8 0 5 18 20 40 34 34 23
41 24 51 11 15 -17 14 -19 -58 -101 l-52 -59 39 -32 c50 -40 51 -64 9 -156
-91 -201 -269 -840 -299 -1075 -12 -99 -12 -236 0 -282 14 -48 52 -94 99 -118
20 -10 91 -29 157 -41 221 -43 575 -26 785 36 46 14 91 23 100 20 45 -15 72
-106 94 -325 9 -85 23 -204 31 -265 8 -60 19 -177 24 -260 10 -168 33 -316 87
-545 66 -282 73 -314 84 -402 8 -64 8 -96 0 -119 -6 -18 -11 -44 -11 -58 0
-14 -9 -41 -20 -59 -11 -18 -20 -48 -20 -66 0 -19 -4 -56 -9 -83 -6 -26 -15
-84 -21 -128 -6 -44 -22 -129 -35 -190 -39 -171 -46 -235 -46 -450 0 -264 23
-504 72 -765 40 -209 187 -773 289 -1105 102 -332 130 -471 130 -648 0 -115
-21 -191 -95 -338 -54 -106 -101 -241 -121 -346 -21 -110 -17 -307 12 -658 15
-170 28 -419 31 -551 6 -280 -4 -360 -64 -484 -33 -70 -36 -84 -44 -215 -11
-170 -46 -460 -60 -497 -23 -57 15 -241 65 -318 13 -20 35 -59 50 -88 55 -109
142 -176 229 -176 49 0 53 2 101 56 78 86 113 165 120 268 6 92 -12 239 -37
305 -8 22 -20 74 -26 115 -14 104 -16 416 -2 466 6 24 10 112 9 210 -1 147 2
194 30 359 38 236 84 442 157 706 30 112 65 258 76 324 43 260 60 333 109 460
27 72 50 125 50 119 0 -6 -7 -55 -15 -110 -11 -75 -16 -221 -19 -570 -4 -603
-19 -757 -94 -989 -30 -95 -35 -122 -34 -200 1 -49 -3 -119 -9 -155 -6 -36
-14 -135 -19 -220 -9 -147 -31 -268 -51 -281 -20 -12 -51 -201 -47 -284 3 -71
9 -91 51 -177 55 -114 75 -131 151 -130 124 1 231 82 283 214 9 24 21 50 28
58 47 62 63 241 40 465 -8 72 -17 193 -20 270 -3 77 -11 157 -16 178 -5 20
-10 94 -10 165 0 115 4 142 39 282 22 85 107 362 190 616 83 253 159 501 168
550 26 133 22 323 -10 504 -35 194 -41 291 -27 440 19 201 47 353 101 550 137
496 252 931 270 1018 68 336 75 649 24 1007 -25 179 -86 350 -185 522 -33 56
-59 106 -59 110 0 4 -18 35 -40 68 -22 33 -45 75 -51 93 -6 17 -19 37 -30 42
-10 6 -19 21 -19 33 -1 12 -7 33 -15 47 -8 14 -14 41 -14 60 0 33 3 30 35 -40
64 -136 78 -162 115 -200 80 -82 138 -59 332 133 145 144 203 222 334 452 44
77 100 174 123 215 24 41 59 92 79 113 31 33 41 37 75 35 l40 -3 15 84 c16 82
17 84 52 96 63 22 118 54 169 100 28 25 54 45 57 45 4 0 15 -7 25 -16 21 -20
40 -8 65 40 30 58 57 62 48 7 -5 -29 -2 -42 10 -55 21 -20 30 -15 56 36 23 46
21 68 -15 121 -22 31 -23 40 -13 66 11 29 9 33 -31 72 -29 29 -42 51 -42 70 0
16 -14 46 -33 71 -48 63 -75 63 -176 -4 -44 -29 -141 -91 -216 -137 -134 -82
-178 -122 -208 -191 -6 -14 -40 -59 -75 -100 -35 -41 -77 -100 -94 -130 -39
-68 -49 -80 -206 -256 l-127 -141 -8 106 c-5 58 -9 277 -11 486 -1 255 -6 395
-14 427 -27 105 -51 153 -104 204 -65 63 -103 85 -193 114 -141 46 -204 89
-271 186 l-38 56 -6 166 c-5 179 10 327 36 348 8 6 14 18 14 27 0 10 6 14 14
11 8 -3 21 5 30 18 9 12 16 17 16 10 0 -6 5 -12 10 -12 6 0 10 12 10 28 1 26
1 26 15 8 14 -19 15 -19 15 7 0 15 5 27 10 27 6 0 15 10 20 23 5 12 9 17 9 10
1 -6 10 -9 21 -6 18 5 18 7 5 34 -18 34 -19 43 -4 33 8 -4 9 4 4 27 -5 26 -4
31 5 23 6 -7 12 -26 13 -45 1 -18 8 -34 15 -37 11 -3 12 0 3 17 -8 15 -9 21
-1 21 6 0 8 5 4 12 -5 8 -2 9 9 5 10 -4 25 -10 34 -14 14 -6 14 -2 -4 21 -17
21 -21 36 -16 64 2 20 5 43 6 50 0 7 6 11 14 8 7 -3 12 0 10 7 -1 7 4 11 10
10 17 -4 9 64 -10 86 -9 10 -17 52 -20 116 l-6 100 14 -69 c16 -79 28 -110 19
-51 -3 22 -8 74 -10 116 -1 42 -12 112 -24 155 -11 42 -18 79 -16 81 6 6 26
-49 41 -117 12 -50 14 -55 10 -20 -7 66 -24 119 -45 140 -10 10 -21 29 -25 42
-7 23 -7 23 10 3 23 -27 -26 62 -87 157 -71 111 -178 202 -270 230 l-37 11 75
86 c84 97 158 232 174 320 7 36 7 75 0 118 -14 88 -151 463 -169 463 -4 0 -27
-42 -52 -92z m147 -1005 c44 -39 33 -34 -41 22 -62 46 -69 53 -29 30 17 -10
49 -33 70 -52z m-991 -209 c-14 -32 -25 -50 -25 -40 0 18 41 109 46 103 2 -2
-8 -30 -21 -63z m-42 -126 c-3 -38 -10 -68 -15 -68 -5 0 -6 17 -3 38 3 20 8
52 11 71 9 55 13 31 7 -41z m1264 -83 c26 -101 36 -155 24 -135 -5 8 -14 43
-20 77 -7 33 -23 94 -36 134 -14 40 -25 75 -24 78 2 16 38 -84 56 -154z
m-1230 -67 c-3 -7 -5 -2 -5 12 0 14 2 19 5 13 2 -7 2 -19 0 -25z m1266 -363
c4 -8 2 -17 -3 -20 -6 -4 -10 3 -10 14 0 25 6 27 13 6z m1377 -1625 c0 -5 -10
-10 -22 -10 -19 0 -20 2 -8 10 19 13 30 13 30 0z m-2037 -3075 c-5 -26 -7 -27
-14 -10 -4 11 -8 31 -8 45 -1 21 1 22 13 10 9 -10 12 -26 9 -45z"/>
<path d="M2166 11455 c-9 -26 -7 -32 5 -12 6 10 9 21 6 23 -2 3 -7 -2 -11 -11z"/>
<path d="M2082 11120 c0 -19 2 -27 5 -17 2 9 2 25 0 35 -3 9 -5 1 -5 -18z"/>
<path d="M3404 10535 c26 -20 42 -19 22 0 -8 8 -21 15 -28 15 -8 -1 -6 -6 6
-15z"/>
</g>
</svg>
