<?xml version="1.0" standalone="no"?>
<!DOCTYPE svg PUBLIC "-//W3C//DTD SVG 20010904//EN"
 "http://www.w3.org/TR/2001/REC-SVG-20010904/DTD/svg10.dtd">
<svg version="1.0" xmlns="http://www.w3.org/2000/svg"
 width="550.000000pt" height="1280.000000pt" viewBox="0 0 550.000000 1280.000000"
 preserveAspectRatio="xMidYMid meet">
<g transform="translate(0.000000,1280.000000) scale(0.100000,-0.100000)"
fill="#000000" stroke="none">
<path d="M3130 12771 c-52 -23 -113 -26 -208 -9 l-68 11 -74 -38 c-58 -30
-100 -64 -182 -146 -96 -96 -111 -117 -157 -210 -85 -175 -115 -352 -116 -699
0 -176 -1 -188 -26 -250 -140 -344 -193 -503 -187 -563 2 -25 9 -12 30 66 15
54 37 117 48 140 11 23 18 33 14 22 -26 -89 -44 -176 -43 -214 1 -46 1 -46 10
-13 5 17 15 32 22 32 7 0 23 32 36 73 26 83 124 276 129 254 2 -9 -15 -52 -38
-97 -23 -45 -55 -119 -71 -163 -17 -45 -36 -89 -44 -97 -26 -29 -179 -286
-206 -346 -57 -126 -63 -166 -60 -434 l2 -245 -35 -152 c-19 -83 -38 -175 -40
-205 -19 -192 -20 -190 23 -83 l19 50 -4 -63 c-2 -34 -8 -70 -14 -80 -9 -14
-10 -12 -6 10 3 14 9 34 13 44 4 11 3 15 -4 11 -15 -9 -25 -66 -14 -84 4 -9 3
-30 -5 -52 -18 -49 -18 -72 0 -48 33 43 46 15 46 -101 1 -48 7 -109 15 -137
l14 -50 0 98 c1 79 4 97 16 97 8 0 16 -6 16 -12 1 -7 5 11 9 41 5 29 12 57 17
62 11 11 11 15 -11 -176 -24 -205 -26 -244 -18 -337 10 -122 7 -127 -53 -77
-76 63 -116 88 -305 194 -249 138 -334 196 -417 285 -40 42 -94 88 -120 102
-60 33 -315 98 -383 98 -28 0 -79 -6 -113 -14 -34 -8 -98 -22 -142 -32 -138
-29 -170 -62 -102 -105 30 -19 42 -20 169 -14 130 6 138 5 158 -15 31 -31 13
-51 -75 -90 -72 -32 -76 -32 -95 -15 -15 14 -29 16 -61 11 -36 -6 -45 -3 -66
19 -14 14 -36 25 -49 25 -13 0 -39 7 -58 17 -29 13 -38 14 -51 3 -8 -7 -15
-17 -15 -23 0 -6 30 -43 68 -82 37 -40 86 -100 110 -134 47 -68 85 -91 151
-91 22 0 52 -5 68 -11 15 -5 69 -16 120 -23 84 -12 97 -11 131 4 21 10 50 18
65 18 14 0 48 13 74 30 92 59 94 59 171 -7 37 -32 121 -115 187 -186 278 -295
570 -516 767 -579 17 -5 16 -10 -5 -70 -13 -35 -50 -109 -81 -164 -69 -121
-215 -472 -285 -684 -89 -272 -118 -424 -141 -728 -7 -80 -16 -167 -21 -195
-6 -27 -7 -87 -3 -131 l6 -82 82 -7 82 -6 28 -117 c81 -335 298 -1072 441
-1497 167 -497 188 -602 200 -995 16 -556 46 -789 160 -1215 84 -314 214 -839
229 -926 8 -48 16 -140 16 -205 1 -102 -2 -129 -23 -189 -52 -148 -81 -193
-236 -370 -124 -141 -150 -187 -137 -240 4 -14 14 -29 24 -32 9 -3 31 -16 48
-29 17 -12 39 -24 49 -26 11 -1 27 -11 37 -20 21 -21 41 -23 69 -7 15 8 25 6
46 -10 32 -26 110 -28 160 -4 19 9 45 32 58 52 12 20 35 47 50 61 38 36 57 74
74 159 l16 74 51 18 c119 40 141 83 129 247 -5 59 -9 157 -11 217 -1 85 -8
132 -30 210 -27 99 -28 104 -32 450 -2 193 1 553 8 800 14 512 17 473 -66 868
-58 278 -62 318 -39 447 36 202 30 426 -26 960 -10 102 -24 322 -29 490 -13
400 -31 584 -73 748 l-14 52 32 0 32 0 6 -157 c8 -184 15 -230 107 -705 109
-556 131 -713 150 -1058 16 -295 38 -407 119 -590 l46 -105 -14 -140 c-16
-159 -9 -264 34 -466 53 -258 82 -461 94 -672 11 -189 1 -287 -41 -381 -26
-59 -31 -84 -32 -151 -1 -93 5 -107 88 -209 32 -38 63 -81 71 -96 23 -45 53
-178 69 -307 17 -142 38 -196 90 -238 21 -17 52 -44 69 -61 68 -67 169 -88
225 -47 21 16 33 18 46 11 14 -8 25 -5 47 11 15 12 33 21 38 21 6 0 18 12 28
27 10 16 24 33 32 39 26 20 7 90 -42 153 -24 32 -52 81 -61 109 -10 29 -47
109 -83 179 -36 71 -91 200 -122 288 l-56 160 0 185 c0 205 2 216 116 640 89
336 126 640 100 833 -6 48 -25 133 -42 190 -46 158 -49 410 -9 707 5 36 21
178 35 315 32 313 79 739 110 1000 13 110 27 247 30 305 8 146 13 170 30 164
12 -5 97 8 148 22 23 7 22 22 -8 110 -14 41 -39 150 -56 242 -17 92 -57 273
-89 402 -111 448 -173 827 -192 1185 -15 270 -14 423 6 725 9 135 18 277 20
315 2 39 8 104 14 145 16 109 37 433 35 520 -2 41 -7 97 -12 123 l-9 49 42
-45 c39 -40 372 -269 456 -312 52 -27 184 -38 229 -19 43 18 94 65 123 114 12
19 31 46 44 60 56 61 68 165 49 415 -31 397 -42 489 -96 835 -16 107 -34 239
-39 295 -5 55 -15 116 -23 135 -19 44 -102 328 -127 431 -21 91 -18 85 -136
220 -90 104 -91 104 -165 126 -41 12 -103 27 -139 33 -36 7 -82 18 -103 26
-20 8 -47 14 -59 14 -18 0 -20 -4 -15 -40 4 -32 1 -43 -13 -53 -23 -16 -16
-57 10 -57 10 0 23 -7 30 -15 7 -8 27 -15 45 -15 18 0 38 -7 45 -15 7 -8 27
-15 45 -15 38 0 49 -12 103 -111 29 -53 42 -89 42 -115 0 -22 4 -54 10 -73 15
-54 -14 -96 -60 -85 -36 8 -59 32 -91 96 -53 106 -124 168 -180 160 -26 -4
-30 -8 -25 -28 14 -55 176 -371 202 -395 54 -48 169 -127 244 -166 l75 -40 3
-69 c3 -72 -19 -255 -62 -529 -14 -88 -29 -205 -34 -260 l-8 -100 -57 117
c-96 198 -242 330 -399 362 l-60 12 -34 83 c-26 64 -41 132 -69 305 -19 123
-34 238 -33 257 1 30 2 29 7 -11 l7 -45 7 70 c5 39 13 88 19 110 l10 40 22
-70 c13 -39 32 -88 44 -110 24 -44 82 -116 63 -78 -18 36 -12 40 15 8 l25 -30
-22 50 c-11 28 -22 64 -24 81 -5 53 -36 236 -51 312 -9 41 -14 75 -12 78 8 8
38 -102 53 -198 19 -121 37 -170 30 -83 -24 284 -34 326 -120 495 -30 58 -66
146 -80 195 -26 89 -52 154 -126 313 -79 171 -232 323 -405 404 -86 40 -160
46 -224 19z m-1149 -2541 c-6 -32 -6 -31 -11 20 -3 30 -3 82 0 115 l4 60 7
-80 c3 -44 3 -96 0 -115z m2126 -1192 c-3 -7 -5 -2 -5 12 0 14 2 19 5 13 2 -7
2 -19 0 -25z"/>
</g>
</svg>
