<?xml version="1.0" standalone="no"?>
<!DOCTYPE svg PUBLIC "-//W3C//DTD SVG 20010904//EN"
 "http://www.w3.org/TR/2001/REC-SVG-20010904/DTD/svg10.dtd">
<svg version="1.0" xmlns="http://www.w3.org/2000/svg"
 width="921.000000pt" height="1280.000000pt" viewBox="0 0 921.000000 1280.000000"
 preserveAspectRatio="xMidYMid meet">
<g transform="translate(0.000000,1280.000000) scale(0.100000,-0.100000)"
fill="#000000" stroke="none">
<path d="M3895 12785 c-44 -23 -55 -43 -55 -99 0 -74 -43 -253 -83 -344 -120
-277 -445 -586 -827 -785 l-85 -44 -880 -1 c-953 -1 -980 -2 -1168 -57 -148
-43 -247 -97 -372 -204 -210 -180 -331 -376 -398 -641 l-21 -85 -4 -4690 c-3
-5175 -7 -4839 58 -5036 72 -219 223 -429 410 -570 124 -94 316 -178 480 -211
53 -11 748 -13 3665 -13 l3600 0 89 23 c222 57 406 163 563 326 135 138 228
292 286 471 55 169 52 -139 52 4920 0 5118 4 4774 -57 4965 -60 187 -145 327
-283 465 -133 133 -267 217 -444 276 -186 63 -163 62 -1112 64 l-865 1 -149
78 c-161 84 -282 159 -385 239 -137 107 -338 319 -400 421 -74 122 -133 285
-145 401 -8 82 -24 117 -60 133 -19 9 -199 12 -703 12 -589 0 -681 -2 -707
-15z m1381 -155 c35 -227 137 -431 318 -635 126 -142 366 -329 528 -411 128
-64 126 -78 -9 -50 -189 40 -542 80 -933 107 -264 18 -1058 15 -1305 -5 -233
-19 -486 -50 -634 -77 -58 -10 -113 -19 -123 -19 -32 0 -19 19 27 39 67 30
268 182 369 280 153 149 246 274 321 434 49 104 69 172 86 302 7 50 16 96 22
103 7 9 148 12 665 10 l656 -3 12 -75z m-16 -1091 c783 -61 1385 -185 1872
-384 346 -142 594 -335 688 -537 41 -88 60 -176 40 -188 -9 -6 -1279 -10
-3257 -10 -2963 0 -3243 1 -3258 16 -8 9 -14 24 -11 33 3 9 10 36 16 61 52
200 268 405 593 564 203 99 394 166 747 260 345 93 989 174 1585 200 143 6
857 -4 985 -15z m-2520 -58 c0 -12 -6 -14 -145 -46 -419 -98 -820 -277 -1045
-467 -216 -184 -319 -369 -320 -575 l0 -63 3370 0 c2888 0 3371 2 3376 14 10
25 -25 235 -48 288 -35 85 -74 136 -204 264 -144 143 -213 194 -360 268 -137
68 -203 94 -494 195 -316 110 -320 111 -320 123 0 7 251 8 773 3 691 -6 787
-9 914 -26 133 -19 151 -24 265 -77 68 -31 146 -71 175 -89 121 -75 261 -229
335 -370 57 -108 81 -181 105 -315 17 -99 18 -304 18 -4833 0 -4512 -1 -4734
-18 -4813 -51 -237 -193 -482 -361 -624 -194 -163 -363 -236 -601 -258 -75 -8
-1246 -10 -3640 -8 l-3530 3 -95 28 c-326 96 -565 291 -700 572 -75 158 -101
249 -112 405 -6 85 -8 1881 -6 4825 l4 4690 27 100 c15 58 50 148 83 215 54
108 65 122 178 235 67 66 147 137 178 158 63 43 230 113 353 149 l80 23 860 5
c473 3 870 6 883 8 12 1 22 -2 22 -7z"/>
<path d="M4495 12628 c-172 -88 -211 -303 -79 -430 110 -105 271 -104 375 3
99 102 105 250 13 357 -74 87 -215 119 -309 70z"/>
<path d="M700 10973 c-8 -3 -23 -12 -32 -21 -17 -14 -18 -261 -18 -4918 0
-4444 1 -4904 16 -4918 14 -15 385 -16 3930 -16 3863 0 3914 0 3933 19 11 11
23 35 26 53 3 18 4 2224 3 4901 l-3 4869 -24 19 c-22 18 -44 19 -410 19 -365
0 -433 -5 -400 -26 8 -5 190 -11 404 -14 l390 -5 3 -4894 c2 -3909 0 -4896
-10 -4903 -7 -4 -1764 -8 -3904 -8 -3097 0 -3894 3 -3907 12 -16 12 -17 314
-15 4903 l3 4890 397 5 c218 3 400 9 404 13 5 4 2 12 -6 17 -16 10 -754 13
-780 3z"/>
</g>
</svg>
