<?xml version="1.0" standalone="no"?>
<!DOCTYPE svg PUBLIC "-//W3C//DTD SVG 20010904//EN"
 "http://www.w3.org/TR/2001/REC-SVG-20010904/DTD/svg10.dtd">
<svg version="1.0" xmlns="http://www.w3.org/2000/svg"
 width="820.000000pt" height="1280.000000pt" viewBox="0 0 820.000000 1280.000000"
 preserveAspectRatio="xMidYMid meet">
<g transform="translate(0.000000,1280.000000) scale(0.100000,-0.100000)"
fill="#000000" stroke="none">
<path d="M1205 12775 c-178 -46 -608 -207 -773 -288 -79 -39 -142 -92 -142
-121 0 -15 157 -359 267 -586 90 -184 227 -474 295 -620 l48 -105 -28 -25
c-70 -61 -74 -96 -25 -195 34 -67 71 -105 103 -105 23 0 30 -10 67 -97 23 -54
127 -293 231 -530 l189 -433 -54 -40 c-30 -23 -70 -47 -90 -54 -74 -25 -74
-27 42 -276 58 -124 105 -230 105 -235 0 -10 -105 -49 -650 -245 -124 -44
-258 -92 -298 -107 -62 -22 -76 -31 -92 -62 -10 -20 -42 -58 -70 -86 -91 -88
-143 -225 -156 -408 -3 -50 -21 -154 -40 -230 -39 -160 -67 -339 -91 -592 -24
-255 -24 -914 0 -1138 43 -390 116 -702 224 -956 216 -508 1024 -1495 1670
-2041 l41 -35 -135 -150 c-75 -83 -199 -222 -277 -310 l-140 -160 -121 -6
c-139 -8 -181 -21 -308 -98 -95 -57 -178 -119 -340 -254 -86 -71 -107 -94
-103 -110 3 -11 -6 -131 -19 -266 -30 -303 -49 -626 -38 -645 21 -38 249 -188
388 -257 100 -49 354 -139 493 -175 l73 -19 43 49 c41 48 43 49 85 42 23 -3
122 -34 219 -67 220 -76 277 -91 527 -134 492 -85 1622 -239 2050 -280 28 -2
311 -30 630 -61 l580 -58 37 -31 c58 -49 127 -82 193 -94 33 -5 283 -24 556
-41 273 -17 505 -33 515 -36 15 -4 46 30 141 150 115 144 123 157 123 198 0
24 -14 207 -30 408 -30 365 -35 450 -25 450 3 0 166 -14 363 -31 196 -17 384
-29 417 -27 l60 4 81 85 c44 46 104 109 133 140 l52 57 -16 413 c-9 228 -18
424 -21 437 -2 12 -10 22 -16 22 -6 0 -19 6 -27 14 -11 10 -67 18 -181 25 -91
7 -298 21 -460 32 -162 11 -819 60 -1460 109 -641 49 -1281 97 -1422 107
l-257 17 -67 139 c-51 107 -63 141 -53 148 9 5 23 -7 46 -41 18 -28 47 -57 64
-66 120 -62 406 -57 647 12 l122 35 93 -16 c200 -35 518 -30 687 11 211 51
347 178 406 380 22 76 23 202 1 274 -36 122 -156 262 -310 364 -129 84 -407
223 -463 231 -27 4 -80 14 -119 22 -231 47 -567 58 -714 23 -169 -41 -324
-136 -391 -239 -46 -73 -66 -148 -80 -301 -12 -130 -23 -171 -62 -223 -13 -17
-16 -17 -68 7 -30 13 -71 28 -91 31 -30 6 -39 14 -59 53 -70 143 -360 765
-360 773 0 5 7 9 15 9 30 0 72 29 100 70 16 23 41 48 56 55 15 8 274 97 575
199 702 236 1292 442 1324 463 14 9 61 44 105 78 288 222 558 432 605 470 30
24 82 66 115 93 80 65 92 89 75 144 -19 60 -72 158 -118 220 -22 29 -45 63
-51 75 -19 38 -77 48 -194 35 -117 -13 -153 -24 -802 -237 -497 -163 -628
-204 -950 -294 l-200 -56 -105 22 c-196 41 -271 29 -482 -75 -4 -2 -14 14 -23
35 -9 21 -27 49 -40 63 -13 14 -25 36 -27 50 -3 23 -7 25 -55 25 -75 -1 -201
-65 -226 -116 -16 -34 -16 -40 -1 -84 8 -26 12 -51 7 -55 -20 -19 -128 -49
-223 -64 -138 -21 -178 -33 -208 -63 -22 -22 -24 -30 -19 -76 4 -28 12 -54 19
-59 7 -4 61 -8 119 -8 116 0 144 7 306 78 51 22 95 37 97 33 8 -12 -92 -67
-224 -122 -171 -71 -227 -89 -271 -89 -33 0 -40 -4 -45 -25 -8 -33 -19 -32
-34 5 -15 36 -37 50 -81 50 -18 0 -40 7 -50 16 -23 21 -63 14 -147 -26 -43
-20 -65 -37 -72 -55 -11 -28 -3 -102 11 -111 5 -3 9 -13 9 -24 0 -27 -62 -47
-231 -75 -165 -28 -193 -36 -228 -68 l-23 -22 -40 45 c-22 25 -86 105 -143
178 -326 417 -531 794 -622 1147 -60 229 -20 464 99 583 52 53 163 123 241
153 52 20 63 21 110 10 61 -13 184 -85 313 -182 51 -38 101 -69 112 -69 11 0
93 23 183 51 146 45 168 49 201 39 48 -14 79 -52 139 -173 46 -92 50 -104 44
-148 -6 -41 -3 -57 21 -104 41 -79 63 -98 119 -97 53 1 161 46 175 73 31 57
-17 167 -90 209 -40 23 -51 38 -102 140 -73 147 -77 160 -46 160 14 0 80 16
149 35 68 19 127 35 130 35 3 0 28 -47 54 -105 l48 -105 82 6 81 7 36 -69 c19
-38 52 -112 72 -166 34 -90 39 -97 75 -111 37 -15 40 -22 180 -324 79 -169
146 -312 150 -316 6 -6 667 233 689 249 2 1 -74 149 -168 328 l-172 326 18 50
18 50 -77 155 c-51 103 -73 157 -64 160 6 2 24 7 39 12 l26 8 -43 107 -43 106
156 79 c98 50 158 87 163 99 5 15 -169 393 -665 1444 l-673 1425 -34 -1 -34
-1 -275 506 c-151 278 -285 515 -297 527 -13 12 -23 31 -23 43 0 29 -62 151
-90 176 -18 16 -34 20 -85 18 l-62 -3 -105 218 c-59 119 -174 363 -258 542
-208 445 -254 534 -286 548 -37 18 -99 14 -199 -13z m2740 -7279 l40 -12 -140
-41 -140 -42 -33 32 c-29 28 -30 32 -15 41 62 35 209 46 288 22z m-1710 -932
l-67 -46 -30 29 -30 30 66 6 c37 4 74 11 84 16 9 6 23 11 31 11 7 0 -17 -21
-54 -46z m3748 -3171 c-7 -2 -21 -2 -30 0 -10 3 -4 5 12 5 17 0 24 -2 18 -5z
m135 -10 c-10 -2 -28 -2 -40 0 -13 2 -5 4 17 4 22 1 32 -1 23 -4z m339 -23
c141 -12 263 -25 272 -30 11 -6 -4 -8 -44 -4 -353 33 -535 52 -512 53 16 0
144 -8 284 -19z"/>
</g>
</svg>
